<svg xmlns="http://www.w3.org/2000/svg" viewBox="0 0 24 24" fill="none" stroke="currentColor" stroke-width="1.5" stroke-linecap="round" stroke-linejoin="round" aria-hidden="true">
  <path d="M4 9V4h5"/>
  <path d="M15 4h5v5"/>
  <path d="M20 15v5h-5"/>
  <path d="M9 20H4v-5"/>
  <path d="M12 11.5a1.5 1.5 0 0 0-1.5 1.5"/>
  <path d="M12 10a3 3 0 0 0-3 3"/>
  <path d="M12 8.5a4.5 4.5 0 0 0-4.5 4.5"/>
  <path d="M12 7a6 6 0 0 0-6 6"/>
  <path d="M14.5 14.5c0 1.4-1.1 2.5-2.5 2.5"/>
  <path d="M9.5 14.5c0 1 .8 1.8 1.8 1.8"/>
  <path d="M12 14.5V17"/>
</svg>
