<svg xmlns="http://www.w3.org/2000/svg" viewBox="0 0 24 24" fill="none" stroke="currentColor" stroke-width="1.15" stroke-linecap="round" stroke-linejoin="round" aria-hidden="true">
  <path d="M4.5 10V5.5c0-.83.67-1.5 1.5-1.5H10"/>
  <path d="M14 4h4.5c.83 0 1.5.67 1.5 1.5V10"/>
  <path d="M19.5 14v4.5c0 .83-.67 1.5-1.5 1.5H14"/>
  <path d="M10 19.5H5.5c-.83 0-1.5-.67-1.5-1.5V14"/>
  <path d="M12 10.5a1.5 1.5 0 1 0 0 3"/>
  <path d="M12 9.25a2.75 2.75 0 0 0-2.75 2.75"/>
  <path d="M12 8a4 4 0 0 0-4 4"/>
  <path d="M12 6.75a5.25 5.25 0 0 0-5.25 5.25"/>
  <path d="M14.25 13.75a2.25 2.25 0 0 1-4.5 0"/>
  <path d="M10 15.25a1.75 1.75 0 0 0 2 1"/>
  <path d="M12 13.75V16"/>
</svg>
