<svg xmlns="http://www.w3.org/2000/svg" viewBox="0 0 24 24" fill="none" stroke="#ffffff" stroke-width="2" stroke-linecap="round" stroke-linejoin="round" aria-hidden="true">
  <path d="M4 9V4h5"/>
  <path d="M15 4h5v5"/>
  <path d="M20 15v5h-5"/>
  <path d="M9 20H4v-5"/>
  <path d="M12 11a1 1 0 1 0 0 2 1 1 0 0 0 0-2z"/>
  <path d="M12 9.5a2.5 2.5 0 0 0-2.5 2.5"/>
  <path d="M12 8a4 4 0 0 0-4 4"/>
  <path d="M12 6.5a5.5 5.5 0 0 0-5.5 5.5"/>
  <path d="M14.5 14.5a2.5 2.5 0 0 1-5 0"/>
  <path d="M9.5 14.5a1.8 1.8 0 0 0 1.8 1.8"/>
  <path d="M12 14.5V17"/>
</svg>
