<svg xmlns="http://www.w3.org/2000/svg" viewBox="0 0 360 140" fill="none" role="img" aria-hidden="true">
  <defs>
    <linearGradient id="ibg" x1="0" y1="0" x2="360" y2="140" gradientUnits="userSpaceOnUse">
      <stop stop-color="#1a3d32"/>
      <stop offset="0.45" stop-color="#0f2820"/>
      <stop offset="1" stop-color="#0a1a14"/>
    </linearGradient>
    <linearGradient id="iglow" x1="280" y1="10" x2="360" y2="130" gradientUnits="userSpaceOnUse">
      <stop stop-color="#3dd68c" stop-opacity="0.35"/>
      <stop offset="1" stop-color="#3dd68c" stop-opacity="0"/>
    </linearGradient>
    <radialGradient id="ishuttle" cx="0" cy="0" r="1" gradientTransform="matrix(0 28 -28 0 300 42)" gradientUnits="userSpaceOnUse">
      <stop stop-color="#fff" stop-opacity="0.9"/>
      <stop offset="1" stop-color="#3dd68c" stop-opacity="0.2"/>
    </radialGradient>
  </defs>
  <rect width="360" height="140" rx="16" fill="url(#ibg)"/>
  <rect width="360" height="140" rx="16" fill="url(#iglow)"/>
  <circle cx="300" cy="42" r="26" fill="url(#ishuttle)" opacity="0.85"/>
  <path d="M292 50c8-14 22-18 30-10 6 6 2 18-10 26-8 6-18 8-24 4" stroke="#3dd68c" stroke-width="2" stroke-linecap="round" opacity="0.7"/>
  <ellipse cx="308" cy="38" rx="5" ry="7" fill="#3dd68c" opacity="0.5" transform="rotate(-25 308 38)"/>
  <rect x="24" y="28" width="52" height="52" rx="14" fill="#3dd68c" fill-opacity="0.15" stroke="#3dd68c" stroke-opacity="0.45"/>
  <path d="M38 58c6-10 16-14 22-8 4 4 2 12-6 18-6 4-14 5-18 2" stroke="#3dd68c" stroke-width="2.2" stroke-linecap="round"/>
  <circle cx="54" cy="46" r="4" fill="#3dd68c" opacity="0.8"/>
  <text x="88" y="52" fill="#f0faf5" font-family="system-ui,Segoe UI,sans-serif" font-size="22" font-weight="700">Badminton App</text>
  <text x="88" y="78" fill="#8ec5b0" font-family="system-ui,Segoe UI,sans-serif" font-size="13" font-weight="500">Zaproszenie do ligi</text>
  <rect x="88" y="92" width="120" height="6" rx="3" fill="#3dd68c" fill-opacity="0.35"/>
  <rect x="88" y="92" width="72" height="6" rx="3" fill="#3dd68c"/>
</svg>
